<svg xmlns="http://www.w3.org/2000/svg" viewBox="0 0 32 34"><path fill="#95E1D3" d="M30.74 9.503c-1.584-3.696-4.547-6.66-8.243-8.243 1-.787 2.258-1.26 3.629-1.26C29.37 0 32 2.63 32 5.874c0 1.371-.473 2.629-1.26 3.629zM30.5 16c0 3.852-1.512 7.343-3.963 9.94l2.029 2.028c.268.269.434.639.434 1.049 0 .819-.664 1.483-1.483 1.483-.41 0-.781-.166-1.049-.435l-2.178-2.178C21.939 29.529 19.085 30.5 16 30.5c-3.079 0-5.928-.966-8.276-2.603L5.561 30.06c-.272.272-.647.44-1.061.44-.828 0-1.5-.672-1.5-1.501 0-.413.168-.789.439-1.06l2.012-2.012C3.008 23.332 1.5 19.845 1.5 16 1.5 7.992 7.992 1.5 16 1.5S30.5 7.992 30.5 16zM16 4.5C9.649 4.5 4.5 9.648 4.5 16c0 6.351 5.149 11.5 11.5 11.5S27.5 22.351 27.5 16c0-6.352-5.149-11.5-11.5-11.5zm6 13h-6c-.828 0-1.5-.672-1.5-1.5V8c0-.828.672-1.5 1.5-1.5s1.5.672 1.5 1.5v6.499H22c.828 0 1.5.672 1.5 1.501 0 .828-.672 1.5-1.5 1.5zM1.287 9.705C.483 8.685 0 7.4 0 6c0-3.314 2.686-6 6-6 1.4 0 2.685.483 3.706 1.287-3.775 1.617-6.802 4.644-8.419 8.418z"/></svg>