<svg xmlns="http://www.w3.org/2000/svg" viewBox="0 0 32 32"><path fill="#95E1D3" d="M30.5 32h-29C.672 32 0 31.328 0 30.5V1.499C0 .672.672 0 1.5 0h29c.828 0 1.5.672 1.5 1.499V30.5c0 .828-.672 1.5-1.5 1.5zM29 3H3v26h26V3zM5.215 16.239v-.002l4-2.5v.002c.229-.141.497-.222.785-.222.311 0 .6.095.84.257l.006-.008 6.631 4.42 7.638-5.391c.248-.182.554-.29.885-.29.828 0 1.5.672 1.5 1.5 0 .5-.245.943-.622 1.216h.001l-8.5 6h-.001c-.246.179-.55.284-.878.284-.321 0-.618-.101-.861-.272l-6.657-4.438-3.135 1.96c-.241.165-.533.262-.847.262-.828 0-1.5-.672-1.5-1.5 0-.541.286-1.014.715-1.278z"/></svg>