<svg xmlns="http://www.w3.org/2000/svg" viewBox="0 0 32 32"><path fill="#95E1D3" d="M31.065 25.889l-14.471 5.988c-.182.079-.383.123-.594.123-.211 0-.412-.044-.594-.123L.935 25.889C.387 25.666 0 25.128 0 24.5v-23C0 .671.672 0 1.5 0c.203 0 .397.041.573.114h.001l.002.001c.004.001.009.004.013.005L16 5.876 29.911.12c.004-.001.009-.004.013-.005l.003-.001c.176-.073.37-.114.573-.114.828 0 1.5.671 1.5 1.5v23c0 .628-.387 1.166-.935 1.389zM14.5 8.503L3 3.744v19.753l11.5 4.759V8.503zM29 3.744L17.5 8.503v19.753L29 23.497V3.744zm-9.121 6.89l5.5-2.5C25.568 8.048 25.778 8 26 8c.828 0 1.5.671 1.5 1.5 0 .607-.361 1.129-.879 1.365l-5.5 2.5c-.19.087-.4.135-.621.135-.828 0-1.5-.672-1.5-1.5 0-.607.361-1.13.879-1.366zm0 5.5l5.5-2.5c.189-.086.399-.134.621-.134.828 0 1.5.671 1.5 1.499 0 .608-.361 1.13-.879 1.366l-5.5 2.5c-.19.086-.4.135-.621.135-.828 0-1.5-.672-1.5-1.5 0-.607.361-1.13.879-1.366zm0 5.5l5.5-2.5c.189-.086.399-.134.621-.134.828 0 1.5.671 1.5 1.5 0 .607-.361 1.129-.879 1.365l-5.5 2.5c-.19.087-.4.135-.621.135-.828 0-1.5-.672-1.5-1.5 0-.607.361-1.13.879-1.366zM6 8c.221 0 .431.048.621.134l5.5 2.5c.518.236.879.759.879 1.366 0 .828-.672 1.5-1.5 1.5-.222 0-.432-.048-.621-.135l-5.5-2.5c-.518-.236-.879-.758-.879-1.365C4.5 8.671 5.172 8 6 8zm0 5.5c.221 0 .431.048.621.134l5.5 2.5c.518.236.879.759.879 1.366 0 .828-.672 1.5-1.5 1.5-.222 0-.432-.049-.621-.135l-5.5-2.5c-.518-.236-.879-.758-.879-1.366 0-.828.672-1.499 1.5-1.499zM6 19c.221 0 .431.048.621.134l5.5 2.5c.518.236.879.759.879 1.366 0 .828-.672 1.5-1.5 1.5-.222 0-.432-.048-.621-.135l-5.5-2.5c-.518-.236-.879-.758-.879-1.365 0-.829.672-1.5 1.5-1.5z"/></svg>