<svg xmlns="http://www.w3.org/2000/svg" viewBox="0 0 32 28"><path fill="#95E1D3" d="M30 23h-9.5v2.499l2 2.001v.5h-13v-.5l2-2.001V23H2c-.828 0-1.5-.672-1.5-1.501V1.5C.5.671 1.172 0 2 0h28c.828 0 1.5.671 1.5 1.5v19.999c0 .829-.672 1.501-1.5 1.501zm-.5-21h-27v17h27V2zM13 9c.414 0 .789.168 1.061.439l.939.939 2.939-2.939C18.211 7.167 18.586 7 19 7c.828 0 1.5.671 1.5 1.5 0 .414-.168.789-.439 1.061l-4 4c-.272.271-.647.439-1.061.439-.414 0-.789-.168-1.061-.439l-2-2.001c-.271-.271-.439-.646-.439-1.06 0-.829.672-1.5 1.5-1.5z"/></svg>